HIERARCHY
ROOT hip
{
	OFFSET	0.00  0.00  0.00 
	CHANNELS 6 Xposition Yposition Zposition Xrotation Zrotation Yrotation
	JOINT abdomen
	{
		OFFSET	0.000000 0.000000 0.000000
		CHANNELS 3 Xrotation Zrotation Yrotation
		JOINT chest
		{
			OFFSET	0.000000 5.018152 -1.882228
			CHANNELS 3 Xrotation Zrotation Yrotation
			JOINT neckDummy
			{
				OFFSET	0.000000 8.316447 0.784897
				CHANNELS 3 Xrotation Yrotation Zrotation
				JOINT neck
				{
					OFFSET	0.000000 2.280413 -0.392801
					CHANNELS 3 Xrotation Zrotation Yrotation
					JOINT head
					{
						OFFSET	0.000000 3.496879 0.529469
						CHANNELS 3 Xrotation Zrotation Yrotation
						JOINT figureHair
						{
							OFFSET	0.000000 4.699570 0.720622
							CHANNELS 3 Zrotation Yrotation Xrotation
							End Site
							{
								OFFSET 0.000000 -6.419331 0.000000
							}
						}
					}
				}
			}
			JOINT lCollar
			{
				OFFSET	0.599237 8.316447 0.784897
				CHANNELS 3 Yrotation Zrotation Xrotation
				JOINT lShldr
				{
					OFFSET	6.421198 0.010146 -0.332128
					CHANNELS 3 Zrotation Yrotation Xrotation
					JOINT lForeArm
					{
						OFFSET	10.552783 0.025574 0.125508
						CHANNELS 3 Yrotation Zrotation Xrotation
						JOINT lHand
						{
							OFFSET	11.035963 0.319619 0.041520
							CHANNELS 3 Zrotation Yrotation Xrotation
							End Site
							{
								OFFSET 10.353753 0.000000 0.000000
							}
						}
					}
				}
			}
			JOINT rCollar
			{
				OFFSET	-0.599237 8.316447 0.784897
				CHANNELS 3 Yrotation Zrotation Xrotation
				JOINT rShldr
				{
					OFFSET	-6.421198 0.010146 -0.332128
					CHANNELS 3 Zrotation Yrotation Xrotation
					JOINT rForeArm
					{
						OFFSET	-10.552783 0.025574 0.125508
						CHANNELS 3 Yrotation Zrotation Xrotation
						JOINT rHand
						{
							OFFSET	-11.035963 0.319619 0.041520
							CHANNELS 3 Zrotation Yrotation Xrotation
							End Site
							{
								OFFSET -10.353753 0.000000 0.000000
							}
						}
					}
				}
			}
		}
	}
	JOINT lThigh
	{
		OFFSET	4.500466 -6.400484 -1.832696
		CHANNELS 3 Xrotation Zrotation Yrotation
		JOINT lShin
		{
			OFFSET	-1.359117 -18.918689 1.179887
			CHANNELS 3 Xrotation Zrotation Yrotation
			JOINT lFoot
			{
				OFFSET	-0.652380 -17.215186 -0.312137
				CHANNELS 3 Xrotation Yrotation Zrotation
				End Site
				{
					OFFSET 0.000000 0.000000 10.353752
				}
			}
		}
	}
	JOINT rThigh
	{
		OFFSET	-4.500466 -6.400484 -1.832696
		CHANNELS 3 Xrotation Zrotation Yrotation
		JOINT rShin
		{
			OFFSET	1.359117 -18.918689 1.179887
			CHANNELS 3 Xrotation Zrotation Yrotation
			JOINT rFoot
			{
				OFFSET	0.652380 -17.215186 -0.312137
				CHANNELS 3 Xrotation Yrotation Zrotation
				End Site
				{
					OFFSET 0.000000 0.000000 10.353752
				}
			}
		}
	}
}
MOTION
Frames:     1
Frame Time: 0.033333
0.143113 39.599609 -3.707898 0.000000 0.000000 0.000000 4.681872 4.843447 -25.149139 19.728600 -0.553588 -13.971930 0.000000 0.000000 0.000000 12.408001 -9.732941 35.736008 -14.622100 5.282750 -1.032110 0.000000 0.000000 0.000000 -7.654449 14.560375 -18.000000 -13.773899 -53.277000 -38.284000 -36.520599 0.771431 -52.031700 -16.135500 13.892891 -61.966003 -1.259201 12.713600 -4.304300 21.888802 90.238899 1.687099 81.388260 9.988953 -12.660965 -23.439899 -33.862000 -17.689598 -25.617086 4.656245 0.343939 39.614540 -4.175309 -3.259743 -14.174253 1.135698 0.385256 -25.657389 -5.457644 0.038169 39.637955 4.085299 3.066116 -14.281825 -1.562108 0.185260 
